<?xml version="1.0" encoding="utf-8"?>
<!-- Generator: Adobe Illustrator 16.0.0, SVG Export Plug-In . SVG Version: 6.00 Build 0)  -->
<!DOCTYPE svg PUBLIC "-//W3C//DTD SVG 1.1//EN" "http://www.w3.org/Graphics/SVG/1.1/DTD/svg11.dtd">
<svg version="1.1" id="_x32_cf41747-0c0c-4d70-aad4-093c093adad4"
	 xmlns="http://www.w3.org/2000/svg" xmlns:xlink="http://www.w3.org/1999/xlink" x="0px" y="0px" width="1022.84px"
	 height="813.16px" viewBox="0 0 1022.84 813.16" enable-background="new 0 0 1022.84 813.16" xml:space="preserve">
<path opacity="0.1" fill="#009CF9" enable-background="new    " d="M599.86,137.42c-64.721-2.25-126.37-23.14-185.23-46
	c-58.86-22.86-117.16-48.19-180.33-60.3c-40.63-7.79-87.1-8.89-119.83,12.89c-31.51,21-41.69,57.15-47.16,90.73
	c-4.12,25.26-6.54,51.84,4.75,75.49c7.83,16.42,21.74,30.22,31.35,46c33.47,54.72,9.82,122.2-26.45,175.63
	c-17,25.069-36.75,49-49.87,75.659c-13.12,26.66-19.2,57.25-7.72,84.471c11.39,27,38.52,47.24,67.9,61.49
	c59.69,28.949,130,37.229,198.61,41.92c151.83,10.39,304.46,5.89,456.69,1.39c56.34-1.67,112.92-3.36,168.34-12.07
	c30.78-4.84,62.55-12.51,84.899-31.05c28.36-23.53,35.391-63.38,16.391-92.88c-31.891-49.49-120-61.78-142.32-114.9
	c-12.26-29.229,0.34-61.79,18.16-88.909c38.24-58.161,102.33-109.19,105.71-175.67c2.32-45.67-28.5-91.39-76.14-113
	C867.68,45.58,798.42,48.46,761.6,85.95C723.66,124.58,657,139.4,599.86,137.42z"/>
<polygon fill="#009CF9" points="435.45,690.5 93.17,688.83 59.16,609.06 179.42,600.33 158.46,512.87 396.32,482.04 168.55,402.86 
	188.67,398.08 554.92,457.83 534.75,594.32 505.92,669.33 "/>
<path fill="#009CF9" d="M98.42,655.42c0,0,21-3.359,33.6,11.48c0,0-9.24,7.279-29.12-2.801L98.42,655.42z"/>
<path fill="#009CF9" d="M96.22,655.09c0,0-13.4,16.49-6.8,34.851c0,0,10.92-4.37,12.11-26.631L96.22,655.09z"/>
<path fill="#009CF9" d="M84.18,627.98c0,0,8.4-15.41,42,6.159c0,0-4.48,10.36-19.32,9.521C92.02,642.82,88.1,636.1,84.18,627.98z"/>
<path fill="#009CF9" d="M82.01,626.87c0,0-17.43-2-19.12,37.899c0,0,11.05,2.29,18.9-10.329C89.64,641.82,86.42,634.74,82.01,626.87
	z"/>
<path fill="#009CF9" d="M71.86,595.04c0,0,9.8-27.16,45.36-7.84c0,0-8.12,24.92-41.72,17.08L71.86,595.04z"/>
<path fill="#009CF9" d="M60.94,554.44c0,0,18.48-27.44,51.24-2c0,0-11.48,25.76-48.44,11.76L60.94,554.44z"/>
<path fill="#009CF9" d="M57.02,515.8c0,0,21.56-25.21,54,0c0,0-20.44,22.12-54,6.44V515.8z"/>
<path fill="#009CF9" d="M53.66,478.27c0,0,21.84-26.319,52.92-1.399c0,0-24.64,23.24-52.92,7.56V478.27z"/>
<path fill="#009CF9" d="M55.62,444.95c0,0,23-33.88,52.08-10.92c0,0-24.64,29.12-52.08,17.359V444.95z"/>
<path fill="#009CF9" d="M60.94,406.03c0,0,24.36-33.601,52.64-7.84c0,0-28.84,29.119-52.64,14V406.03z"/>
<path fill="#009CF9" d="M69.06,371.24c0,0,28.84-31.58,54-19c0,0-30.05,33.54-55.26,27.38L69.06,371.24z"/>
<path fill="#009CF9" d="M79.14,338.26c0,0,33.28-38.68,52.64-25.76c0,0-24.52,30-55,33L79.14,338.26z"/>
<path fill="#009CF9" d="M93.69,300.01c0,0,29.13-31.58,50.41-23.74c0,0-24.92,32.76-54.32,33.6L93.69,300.01z"/>
<path fill="#009CF9" d="M106.86,264.23c0,0,32.2-30.24,46.2-24.92c0,0-23.24,33.6-47.6,31.64L106.86,264.23z"/>
<path fill="#009CF9" d="M119.74,231.19c0,0,27.72-36.13,42.85-33.33c0,0-16.81,32.21-42.85,37V231.19z"/>
<path fill="#009CF9" d="M133.72,186.64c0,0,24.5-27.69,37.74-27.63c0,0-19.34,37-38.75,36.66L133.72,186.64z"/>
<path fill="#009CF9" d="M142,156.98l23.67-57.68c0,0,1.18,52.14-26.68,68.38L142,156.98z"/>
<path fill="#009CF9" d="M151.61,93.37c0,0,3.92-48.17,1.4-52.09c0,0,16.92,40.05-1.56,73.37L151.61,93.37z"/>
<path fill="#009CF9" d="M70.94,594.4c0,0-24.54-15.21-40.43,22c0,0,21.84,14.5,43.32-12.511L70.94,594.4z"/>
<path fill="#009CF9" d="M60.15,552.89c0,0-30.1-13.729-44.7,25.12c0,0,23.25,16,47.44-15.3L60.15,552.89z"/>
<path fill="#009CF9" d="M55.62,518.11c0,0-21.56-25.21-54,0c0,0,20.44,22.12,54,6.439V518.11z"/>
<path fill="#009CF9" d="M52.92,478.27c0,0-21.84-26.319-52.92-1.399c0,0,24.64,23.24,52.92,7.56V478.27z"/>
<path fill="#009CF9" d="M55.62,445.91c0,0-15.32-37.95-48.62-21.63c0,0,18,33.649,47.26,27.93L55.62,445.91z"/>
<path fill="#009CF9" d="M62.87,405.84c0,0-15.23-38.609-49-20.71c0,0,20.68,35.39,47.5,26.67L62.87,405.84z"/>
<path fill="#009CF9" d="M72.31,371.43c0,0-6-42.33-34-46.12c0,0,5.94,44.641,30.23,53.75L72.31,371.43z"/>
<path fill="#009CF9" d="M79.85,338.34c0,0-2.34-51-25.49-52.78c0,0,0.78,38.709,22.88,60L79.85,338.34z"/>
<path fill="#009CF9" d="M96.09,298.58c0,0-6.9-42.41-29-47.59c0,0,2.74,41.07,26.81,58L96.09,298.58z"/>
<path fill="#009CF9" d="M109.48,264.58c0,0-0.23-44.18-13.73-50.67c0,0-8.37,40,9.82,56.31L109.48,264.58z"/>
<path fill="#009CF9" d="M120.77,230.69c0,0-1.89-45.49-15.87-51.9c0,0-4.78,36,13.78,54.88L120.77,230.69z"/>
<path fill="#009CF9" d="M135.67,190.27c0,0-0.08-37-10.06-45.68c0,0-9.92,40.53,4.85,53.12L135.67,190.27z"/>
<path fill="#009CF9" d="M140.83,155.16l-9.71-61.58c0,0-13.19,50.46,10.17,72.7L140.83,155.16z"/>
<path fill="#009CF9" d="M142.72,93.95c0,0-24.92-41.4-24.41-46c0,0,2.65,43.39,34,65L142.72,93.95z"/>
<path fill="#009CF9" d="M145.64,81.72c0,0-23.52-58.8-34.16-63.56c0,0,33.6,17.08,36.12,61.88L145.64,81.72z"/>
<path fill="#444053" d="M132.59,196.02l-1.61-0.49c19.85-64.73,24.8-106,13.95-116.35l1.15-1.22
	C157.59,88.88,152.92,129.7,132.59,196.02z"/>
<path fill="#444053" d="M77.93,347.58l-2.38-0.85c2.11-5.931,4.38-11.95,6.76-17.881c20.72-51.64,38.36-99.68,49.67-136.56l2.07-1
	c-11.33,36.95-28.66,86.83-49.4,138.54C82.28,335.65,80.02,341.64,77.93,347.58z"/>
<path fill="#444053" d="M128.01,703.86c-0.32-0.351-32.49-36.58-54.92-98.431c-13.143-36.21-20.457-74.276-21.67-112.779
	c-1.54-48.131,8.56-101.87,25.86-150.69l1.88,2.2c-38.84,109.57-23.41,203.46-2.94,260c22.19,61.29,54,97.12,54.31,97.479
	L128.01,703.86z"/>
<path fill="#D5D6DB" d="M630.73,626.94c0,0-22.671,27.67-4.671,69.5l-181,78.5l-17.369,3.64l-8-35l5.35-44.17V675.27L630.73,626.94z
	"/>
<polygon fill="#009CF9" points="59.16,609.06 309.68,563.39 641.63,616.27 435.45,690.5 "/>
<polygon fill="#009CF9" points="59.16,609.06 309.68,563.39 641.63,616.27 435.45,690.5 "/>
<path fill="#009CF9" d="M59.16,609.05c0,0-23.43,44.391,3.57,85.391l371.5,80.5c0,0-23.061-35.36,1.189-84.44L59.16,609.05z"/>
<path opacity="0.1" enable-background="new    " d="M59.16,609.05c0,0-23.43,44.391,3.57,85.391l371.5,80.5
	c0,0-23.061-35.36,1.189-84.44L59.16,609.05z"/>
<path opacity="0.1" enable-background="new    " d="M70.23,624.44c0,0-13.39,32.479,0,53.5"/>
<path fill="#009CF9" d="M434.23,774.94l207.399-88.5c0,0,11.6,2.5,4.1,11s-207.5,86-207.5,86l-375.5-89L434.23,774.94z"/>
<path opacity="0.1" enable-background="new    " d="M434.23,774.94l207.399-88.5c0,0,11.6,2.5,4.1,11s-207.5,86-207.5,86l-375.5-89
	L434.23,774.94z"/>
<path opacity="0.1" enable-background="new    " d="M417.23,699.44c0,0-20,24,0,60"/>
<rect x="422.076" y="713.973" transform="matrix(-0.9486 0.3165 -0.3165 -0.9486 1140.7065 1243.6851)" opacity="0.1" enable-background="new    " width="94.571" height="1"/>
<rect x="420.736" y="716.502" transform="matrix(-0.9347 0.3554 -0.3554 -0.9347 1180.3147 1217.1582)" opacity="0.1" enable-background="new    " width="115.23" height="1"/>
<rect x="420.134" y="721.172" transform="matrix(-0.9255 0.3788 -0.3788 -0.9255 1210.9158 1205.1138)" opacity="0.1" enable-background="new    " width="133.56" height="1"/>
<rect x="419.753" y="723.181" transform="matrix(-0.9113 0.4117 -0.4117 -0.9113 1247.1294 1178.7505)" opacity="0.1" enable-background="new    " width="153.74" height="1"/>
<rect x="420.636" y="725.231" transform="matrix(-0.9163 0.4005 -0.4005 -0.9163 1257.8358 1188.5715)" opacity="0.1" enable-background="new    " width="168.15" height="1"/>
<rect x="421.747" y="725.852" transform="matrix(-0.918 0.3965 -0.3965 -0.918 1289.9015 1186.0471)" opacity="0.1" enable-background="new    " width="201.22" height="1"/>
<polygon opacity="0.3" fill="#FFFFFF" enable-background="new    " points="152.23,613.94 328.23,576.94 435.45,597.44 
	291.23,643.94 "/>
<path fill="#009CF9" d="M641.63,616.27c0,0,9.101,3.671,3.76,9.341c-5.34,5.67-209.97,64.89-209.97,64.89L641.63,616.27z"/>
<path fill="#D5D6DB" d="M730.02,530.76c0,0-22.659,27.66-4.659,69.5l-181,78.5l-17.37,3.66l-8-35l5.43-44.16v-24.17L730.02,530.76z"
	/>
<polygon fill="#3A3768" points="158.46,512.87 408.97,467.21 740.93,520.09 534.75,594.32 "/>
<path fill="#3A3768" d="M158.42,512.87c0,0-23.44,44.39,3.56,85.39l371.5,80.5c0,0-23.051-35.39,1.229-84.45L158.42,512.87z"/>
<path opacity="0.1" enable-background="new    " d="M158.42,512.87c0,0-23.44,44.39,3.56,85.39l371.5,80.5
	c0,0-23.051-35.39,1.229-84.45L417.23,568.88L158.42,512.87z"/>
<path opacity="0.1" enable-background="new    " d="M169.52,528.26c0,0-13.38,32.471,0,53.5"/>
<path fill="#3A3768" d="M533.52,678.76l207.41-88.5c0,0,11.59,2.5,4.09,11s-207.5,86-207.5,86l-375.5-89L533.52,678.76z"/>
<path opacity="0.1" enable-background="new    " d="M533.52,678.76l207.41-88.5c0,0,11.59,2.5,4.09,11s-207.5,86-207.5,86l-375.5-89
	L533.52,678.76z"/>
<path opacity="0.1" enable-background="new    " d="M516.52,603.26c0,0-20,24,0,60"/>
<rect x="521.374" y="617.804" transform="matrix(-0.9486 0.3165 -0.3165 -0.9486 1303.7654 1024.8628)" opacity="0.1" enable-background="new    " width="94.57" height="1"/>
<rect x="520.046" y="620.327" transform="matrix(-0.9347 0.3554 -0.3554 -0.9347 1338.2617 995.7996)" opacity="0.1" enable-background="new    " width="115.23" height="1"/>
<rect x="519.429" y="624.984" transform="matrix(-0.9255 0.3788 -0.3788 -0.9255 1365.6707 982.292)" opacity="0.1" enable-background="new    " width="133.56" height="0.999"/>
<rect x="519.06" y="626.995" transform="matrix(-0.9113 0.4117 -0.4117 -0.9113 1397.3442 954.0204)" opacity="0.1" enable-background="new    " width="153.74" height="1"/>
<rect x="519.929" y="629.032" transform="matrix(-0.9163 0.4005 -0.4005 -0.9163 1409.5815 964.4589)" opacity="0.1" enable-background="new    " width="168.15" height="1.001"/>
<rect x="521.048" y="629.653" transform="matrix(-0.918 0.3965 -0.3965 -0.918 1442.2202 962.1624)" opacity="0.1" enable-background="new    " width="201.22" height="1"/>
<polygon opacity="0.45" fill="#FFFFFF" enable-background="new    " points="251.53,517.76 427.53,480.76 534.75,501.26 
	390.53,547.76 "/>
<path fill="#3A3768" d="M740.93,520.09c0,0,9.09,3.67,3.761,9.33c-5.33,5.66-209.94,64.891-209.94,64.891L740.93,520.09z"/>
<path fill="#D5D6DB" d="M739.42,420.73c0,0-22.67,49.67-4.67,91.5l-181,56.5l-17.33,3.67l-8-35l5.35-44.17V469.06L739.42,420.73z"/>
<polygon fill="#009CF9" points="167.89,402.85 418.41,357.18 750.37,410.06 544.18,484.29 "/>
<path fill="#009CF9" d="M167.89,402.84c0,0-23.47,44.391,3.53,85.391l371.5,80.5c0,0-23.06-35.391,1.22-84.44L167.89,402.84z"/>
<path opacity="0.1" enable-background="new    " d="M167.89,402.84c0,0-23.47,44.391,3.53,85.391l371.5,80.5
	c0,0-23.06-35.391,1.22-84.44L167.89,402.84z"/>
<path opacity="0.1" enable-background="new    " d="M178.96,418.23c0,0-13.39,32.479,0,53.5"/>
<path fill="#009CF9" d="M542.96,568.73l207.4-66.5c0,0,11.6,2.5,4.1,11s-207.5,64-207.5,64l-375.5-89L542.96,568.73z"/>
<path opacity="0.1" enable-background="new    " d="M542.96,568.73l207.4-66.5c0,0,11.6,2.5,4.1,11s-207.5,64-207.5,64l-375.5-89
	L542.96,568.73z"/>
<path opacity="0.1" enable-background="new    " d="M525.96,493.23c0,0-20,24,0,60"/>
<rect x="530.817" y="507.772" transform="matrix(-0.9486 0.3165 -0.3165 -0.9486 1287.3436 807.4655)" opacity="0.1" enable-background="new    " width="94.57" height="1"/>
<rect x="529.482" y="510.3" transform="matrix(-0.9347 0.3554 -0.3554 -0.9347 1317.4138 779.5684)" opacity="0.1" enable-background="new    " width="115.23" height="1"/>
<rect x="528.856" y="514.962" transform="matrix(-0.9255 0.3788 -0.3788 -0.9255 1342.1443 766.8765)" opacity="0.1" enable-background="new    " width="133.56" height="1"/>
<rect x="528.501" y="516.964" transform="matrix(-0.9113 0.4117 -0.4117 -0.9113 1370.09 739.8331)" opacity="0.1" enable-background="new    " width="153.74" height="1"/>
<rect x="529.373" y="519.012" transform="matrix(-0.9163 0.4005 -0.4005 -0.9163 1383.6163 749.8453)" opacity="0.1" enable-background="new    " width="168.151" height="1"/>
<rect x="530.49" y="519.639" transform="matrix(-0.918 0.3965 -0.3965 -0.918 1416.7095 747.4069)" opacity="0.1" enable-background="new    " width="201.22" height="1"/>
<polygon opacity="0.3" fill="#FFFFFF" enable-background="new    " points="260.96,407.73 436.96,370.73 544.18,391.23 
	399.96,437.73 "/>
<path fill="#009CF9" d="M750.36,410.06c0,0,9.1,3.671,3.76,9.341s-209.94,64.89-209.94,64.89L750.36,410.06z"/>
<path fill="#009CF9" d="M310.42,106.5c0,0-38-2.29-33.56,24.37c0,0-0.89,4.71,3.38,6.85c0,0,0.07-2,3.9-1.31
	c1.367,0.235,2.757,0.302,4.14,0.2c1.865-0.127,3.637-0.857,5.05-2.08l0,0c0,0,10.69-4.42,14.85-21.9c0,0,3.08-3.81,3-4.79
	l-6.44,2.74c0,0,2.19,4.63,0.47,8.48c0,0-0.21-8.31-1.45-8.12c-0.25,0-3.33,1.61-3.33,1.61s3.77,8.07,0.92,13.93
	c0,0,1.08-9.94-2.1-13.35l-4.52,2.64c0,0,4.41,8.33,1.42,15.13c0,0,0.77-10.43-2.37-14.49l-4.1,3.2c0,0,4.15,8.21,1.62,13.85
	c0,0-0.33-12.14-2.5-13.06c0,0-3.59,3.16-4.13,4.46c0,0,2.84,6,1.07,9.11c0,0-1.07-8.09-2-8.13c0,0-3.57,5.36-3.94,9
	c0.173-3.394,1.231-6.683,3.07-9.54c-2.058,0.39-3.956,1.374-5.46,2.83c0,0,0.55-3.79,6.35-4.12c0,0,2.95-4.07,3.74-4.31
	c0,0-5.77-0.49-9.26,1.06c0,0,3.08-3.57,10.31-2l4-3.3c0,0-7.58-1-10.8,0.11c0,0,3.71-3.16,11.89-0.86l4.41-2.63
	c0,0-6.47-1.39-10.32-0.89c0,0,4.06-2.19,11.61,0.18l3.14-1.41c0,0-4.73-0.93-6.12-1.08c-1.39-0.15-1.46-0.53-1.46-0.53
	c3.002-0.493,6.083-0.147,8.9,1C303.8,109.35,310.55,106.92,310.42,106.5z"/>
<path opacity="0.1" fill="#009CF9" enable-background="new    " d="M845.02,216.08c0,0-38-2.29-33.56,24.37c0,0-0.89,4.71,3.38,6.85
	c0,0,0.07-2,3.9-1.31c1.367,0.229,2.757,0.296,4.14,0.2c1.848-0.136,3.602-0.866,5-2.08l0,0c0,0,10.7-4.42,14.851-21.9
	c0,0,3.079-3.81,3-4.79l-6.421,2.74c0,0,2.19,4.63,0.471,8.48c0,0-0.21-8.31-1.44-8.12c-0.25,0-3.34,1.61-3.34,1.61
	s3.77,8.07,0.93,13.93c0,0,1.08-9.94-2.109-13.35l-4.521,2.64c0,0,4.41,8.33,1.42,15.13c0,0,0.771-10.43-2.37-14.49l-4.09,3.2
	c0,0,4.141,8.21,1.61,13.85c0,0-0.33-12.14-2.5-13.06c0,0-3.58,3.16-4.13,4.46c0,0,2.84,6,1.08,9.11c0,0-1.08-8.09-2-8.13
	c0,0-3.57,5.36-3.94,9c0.173-3.395,1.235-6.685,3.08-9.54c-2.061,0.391-3.961,1.374-5.47,2.83c0,0,0.56-3.79,6.35-4.12
	c0,0,2.95-4.07,3.74-4.32c0,0-5.76-0.48-9.26,1.07c0,0,3.08-3.57,10.31-2l4-3.3c0,0-7.59-1-10.8,0.11c0,0,3.7-3.16,11.89-0.86
	l4.4-2.63c0,0-6.47-1.39-10.32-0.89c0,0,4.061-2.19,11.61,0.18l3.149-1.41c0,0-4.739-0.93-6.13-1.08c-1.39-0.15-1.46-0.53-1.46-0.53
	c3.002-0.5,6.084-0.153,8.9,1C838.37,218.93,845.14,216.5,845.02,216.08z"/>
<path opacity="0.1" fill="#009CF9" enable-background="new    " d="M374.42,271.2c0,0-16.56-34.33-37.64-17.41
	c0,0-4.55,1.52-4.33,6.29c0,0,1.75-0.91,3,2.77c0.467,1.301,1.084,2.542,1.84,3.7c1.023,1.569,2.529,2.763,4.29,3.4l0,0
	c0,0,9.07,7.18,26.36,2.28c0,0,4.83,0.83,5.62,0.25l-5.52-4.27c0,0-3,4.17-7.18,4.54c0,0,7.16-4.23,6.39-5.21
	c-0.16-0.2-3-2.13-3-2.13s-5.21,7.23-11.71,7.6c0,0,9.2-3.9,10.62-8.35l-4.5-2.66c0,0-5.13,7.92-12.52,8.62
	c0,0,9.48-4.41,11.49-9.13l-4.78-2c0,0-5.15,7.62-11.31,8.17c0,0,10.44-6.21,10.18-8.56c0,0-4.51-1.58-5.91-1.43
	c0,0-3.82,5.39-7.42,5.39c0,0,6.53-4.89,6.13-5.68c0,0-6.42-0.5-9.8,1c3.045-1.514,6.435-2.203,9.83-2
	c-1.347-1.606-3.133-2.784-5.14-3.39c0,0,3.58-1.36,6.69,3.53c0,0,5,0.59,5.59,1.16c0,0-2.39-5.26-5.44-7.55c0,0,4.62,0.93,6.73,8
	l4.85,1.92c0,0-2.79-7.12-5.36-9.37c0,0,4.56,1.69,6.55,10l4.44,2.56c0,0-1.93-6.33-4.25-9.44c0,0,3.89,2.48,5.5,10.22l2.77,2.06
	c0,0-1.5-4.59-2-5.87c-0.5-1.28-0.25-1.54-0.25-1.54c1.902,2.375,3.107,5.231,3.48,8.25C368.71,266.92,374.06,271.5,374.42,271.2z"
	/>
<path opacity="0.1" fill="#009CF9" enable-background="new    " d="M758.2,167.58c0,0-16.55-34.33-37.641-17.41
	c0,0-4.54,1.52-4.329,6.29c0,0,1.76-0.9,3,2.77c0.466,1.306,1.087,2.552,1.85,3.71c1.02,1.566,2.522,2.756,4.28,3.39l0,0
	c0,0,9.08,7.18,26.359,2.29c0,0,4.83,0.82,5.63,0.24l-5.489-4.28c0,0-3,4.18-7.17,4.55c0,0,7.149-4.24,6.38-5.22
	c-0.16-0.2-3-2.13-3-2.13s-5.2,7.23-11.71,7.6c0,0,9.21-3.9,10.63-8.34l-4.57-2.64c0,0-5.12,7.91-12.52,8.62
	c0,0,9.479-4.42,11.5-9.14l-4.79-2c0,0-5.15,7.63-11.301,8.17c0,0,10.431-6.21,10.171-8.55c0,0-4.5-1.59-5.9-1.43
	c0,0-3.82,5.38-7.43,5.38c0,0,6.539-4.89,6.14-5.68c0,0-6.42-0.5-9.81,1c3.045-1.514,6.435-2.204,9.829-2
	c-1.342-1.607-3.125-2.786-5.13-3.39c0,0,3.58-1.36,6.69,3.53c0,0,5,0.6,5.59,1.17c0,0-2.39-5.27-5.45-7.56c0,0,4.62,0.94,6.73,8.05
	l4.859,1.92c0,0-2.79-7.13-5.359-9.38c0,0,4.56,1.69,6.54,10l4.45,2.56c0,0-1.94-6.32-4.261-9.44c0,0,3.9,2.48,5.5,10.22l2.771,2.06
	c0,0-1.49-4.59-2-5.87c-0.51-1.28-0.25-1.53-0.25-1.53c1.896,2.376,3.098,5.232,3.47,8.25C752.46,163.36,757.89,167.9,758.2,167.58z
	"/>
<path opacity="0.1" fill="#009CF9" enable-background="new    " d="M811.09,337.39c0,0-16.55-34.34-37.67-17.42
	c0,0-4.54,1.521-4.33,6.29c0,0,1.76-0.899,3,2.771c0.463,1.306,1.081,2.551,1.84,3.71c1.02,1.565,2.522,2.756,4.28,3.39l0,0
	c0,0,9.08,7.19,26.37,2.29c0,0,4.82,0.83,5.62,0.24l-5.521-4.271c0,0-3,4.181-7.18,4.551c0,0,7.15-4.24,6.38-5.221
	c-0.16-0.2-3-2.13-3-2.13s-5.2,7.23-11.71,7.61c0,0,9.21-3.91,10.63-8.351l-4.51-2.659c0,0-5.12,7.92-12.521,8.619
	c0,0,9.48-4.42,11.5-9.14l-4.789-2c0,0-5.15,7.62-11.301,8.17c0,0,10.44-6.21,10.181-8.56c0,0-4.511-1.59-5.91-1.431
	c0,0-3.82,5.381-7.431,5.381c0,0,6.54-4.891,6.141-5.681c0,0-6.42-0.5-9.811,1c3.05-1.513,6.442-2.202,9.841-2
	c-1.344-1.609-3.132-2.788-5.141-3.39c0,0,3.58-1.37,6.69,3.53c0,0,5,0.59,5.59,1.159c0,0-2.39-5.26-5.44-7.56
	c0,0,4.62,0.94,6.73,8.05l4.85,1.92c0,0-2.79-7.13-5.359-9.37c0,0,4.56,1.681,6.54,10l4.449,2.551c0,0-1.939-6.32-4.26-9.44
	c0,0,3.9,2.48,5.51,10.23l2.771,2c0,0-1.5-4.591-2-5.87c-0.5-1.28-0.25-1.53-0.25-1.53c1.901,2.374,3.104,5.23,3.47,8.25
	C805.34,333.08,810.78,337.69,811.09,337.39z"/>
<ellipse opacity="0.1" fill="#009CF9" enable-background="new    " cx="201.95" cy="781.59" rx="22.99" ry="2.57"/>
<ellipse opacity="0.1" fill="#009CF9" enable-background="new    " cx="51.24" cy="737.91" rx="22.99" ry="2.57"/>
<ellipse opacity="0.1" fill="#009CF9" enable-background="new    " cx="316.83" cy="810.6" rx="22.99" ry="2.57"/>
<ellipse opacity="0.1" fill="#009CF9" enable-background="new    " cx="905.53" cy="747.41" rx="22.989" ry="2.57"/>
<ellipse opacity="0.1" fill="#009CF9" enable-background="new    " cx="714.22" cy="734.94" rx="22.99" ry="2.57"/>
<ellipse opacity="0.1" fill="#009CF9" enable-background="new    " cx="590.46" cy="793.66" rx="27.19" ry="4.67"/>
<path fill="#009CF9" d="M602.59,746.72c0,0-37.859,19.561-18.3,42.601c0,0,1.84,5,7.16,4.649c0,0-1.061-1.939,3-3.489
	c1.444-0.559,2.817-1.287,4.09-2.17c1.72-1.189,3.004-2.906,3.66-4.891l0,0c0,0,7.739-10.359,1.739-29.53c0,0,0.78-5.42,0.101-6.3
	l-4.601,6.311c0,0,4.75,3.189,5.301,7.88c0,0-5-7.87-6-7c-0.221,0.18-2.28,3.45-2.28,3.45s8.24,5.59,8.85,12.85
	c0,0-4.64-10.17-9.649-11.62l-2.87,5.12c0,0,9,5.479,10,13.72c0,0-5.23-10.45-10.57-12.56l-2.109,5.41c0,0,8.68,5.52,9.479,12.38
	c0,0-7.26-11.471-9.87-11.11c0,0-1.64,5.08-1.42,6.65c0,0,6.13,4.1,6.24,8.13c0,0-5.66-7.15-6.53-6.681c0,0-0.359,7.19,1.38,10.931
	c0,0-3-5.34-2.51-10.931c-1.754,1.552-3.016,3.581-3.63,5.841c0,0-1.63-3.95,3.74-7.591c0,0,0.51-5.59,1.13-6.279
	c0,0-5.811,2.84-8.28,6.319c0,0,0.91-5.189,8.79-7.77l2-5.48c0,0-7.88,3.341-10.31,6.28c0,0,1.75-5.149,10.93-7.62l2.72-5
	c0,0-7,2.36-10.42,5c0,0,2.65-4.43,11.26-6.47l2.21-3.15c0,0-5.08,1.811-6.5,2.461c-1.42,0.649-1.699,0.329-1.699,0.329
	c2.596-2.195,5.749-3.628,9.109-4.14C597.93,753.25,602.94,747.06,602.59,746.72z"/>
<linearGradient id="SVGID_1_" gradientUnits="userSpaceOnUse" x1="862.2266" y1="4.8506" x2="862.2266" y2="506.7329" gradientTransform="matrix(1 0 0 -1 -315.5801 506.7402)">
	<stop  offset="0" style="stop-color:#808080;stop-opacity:0.25"/>
	<stop  offset="0.54" style="stop-color:#808080;stop-opacity:0.12"/>
	<stop  offset="1" style="stop-color:#808080;stop-opacity:0.1"/>
</linearGradient>
<path fill="url(#SVGID_1_)" d="M714.96,377.29c-6.54-17.771-42.54-19.44-58.16-14.91c-11.1,3.23-34.5,6.87-47,8.7l-0.81-0.771
	c1.62-0.479,1.66-1.659,1.46-3.409c-0.116-2.307-0.083-4.618,0.1-6.92c7.66,2.38,14.48-3.25,14.48-3.25l0,0
	c9-4,6.58-21.12,8.3-25.801c1.29-3.5,2.68-24.12,3.3-34.399h0.13l0.07-3.45c0.09-1.49,0.13-2.36,0.13-2.36s0.88-25.14,2.6-30.23
	c1.601-4.68,2.9-28.26,3.101-32c0-0.32,0-0.49,0-0.49l-0.13-2.18c0.09-1.59,0.13-3.36,0.12-5.22c0-8.55-0.891-19.32-1-21.06
	c0-0.25,0-0.55,0-0.91c0.069-3.65-0.391-21.93-15.94-28.84c-5.73-2.56-12.62-5.61-19.29-8.58c-1.72-14.85-5.65-29.62-5.31-44.58
	c0-2.25,0.199-4.5,0.42-6.74c0,0.65-0.07,1.31-0.08,2c0,1.45,0,2.91,0,4.36c0.59-18.71,7.659-37.52,7-55.83
	c-0.061,1.79-0.19,3.59-0.36,5.39c0.346-6.193-0.303-12.402-1.92-18.39c-0.6-2.11-1.41-4.29-3.14-5.7
	c-1.636-1.136-3.511-1.878-5.48-2.17c-4.731-1.211-9.539-2.106-14.39-2.68c-0.737-2.256-1.831-4.38-3.24-6.29
	c-10.14-13.92-25.16-27-42.92-30c-8.91-1.5-19.16-0.25-25.22,6.12c-0.633,0.56-1.228,1.161-1.78,1.8c-3.26,3.89-4.66,9-8,12.88
	c-0.22,0.26-0.47,0.5-0.71,0.75c-6.54,5.85-16.73,7.07-24,12.32c-1.281,0.942-2.481,1.989-3.59,3.13
	c-2.93,2.903-5.557,6.096-7.84,9.53c-3.271,4.6-6.63,9.39-7.67,14.88c-2.091,11,5.399,21.43,6.79,32.5
	c3.1,24.77-24.311,46.75-19.12,71.19c1.385,6.004,4.442,11.493,8.819,15.83c-10.689,9.68-19.79,19.07-19.79,19.07v0.56H433.2l0.17,2
	h-0.17l0.93,10.85l-0.93,15.8c0,0,0,0.17,0,0.49v0.08v0.43c0,0,0,0.17,0,0.49h0.06c0.311,5.79,1.54,26.61,3,31
	c1.72,5.09,2.59,30.23,2.59,30.23s1.9,35.53,3.641,40.23s-0.73,21.77,8.3,25.8l0,0c2.642,2.026,5.77,3.323,9.07,3.76
	c-0.46,3.74-0.17,6.45,1.319,7.3c0.638,0.375,1.36,0.582,2.101,0.601c-0.613,0.908-1.158,1.861-1.63,2.85
	c-3.585-0.374-7.106-1.204-10.48-2.47c-9.7-4-41.89-13-51.24-6.67c-9.35,6.33-31.85,12.07-21.459,37.55
	c10.39,25.48,15.23,26.12,15.23,26.12c3.198,2.321,6.004,5.141,8.31,8.35c3.12,4.69,32.19,15.42,39.46,15.42
	c3.09-0.047,6.181,0.106,9.25,0.46c0,0-7.89,6.921-6.84,10.94s-2.4,36.2-2.4,36.2s8,8.06,11.421-2.51l0.119,0.159
	c0.641,0.87,4.101,4.801,10.61-0.159c2.664-2.021,5.494-3.814,8.46-5.36l31.521-4.46c3.286-0.205,6.581-0.229,9.869-0.07
	c5,0.41,9.91-2.55,13-4.84c6.53,2.479,13.87,5.19,17.36,6.18c7.08,2,39.62,10.73,47.23,8c1.581-0.629,2.988-1.63,4.1-2.92l7.26,0.23
	l-3.399,0.68c0,0,6.619,0.11,15.619,0.23l-0.38,0.22l11.29-0.101c16.521,0.15,35.08,0.2,37.521-0.35c3.819-0.85,23.67-0.25,29.52,0
	h1.63c0,0,21.811-4.35,12.811-26.479c-6.92-17-28.19-21.94-37.63-23.301c2.66-0.529,4.949-0.939,6.47-1.18
	c6.59-1,19.39-7,20.43-9.05s11.771-8,14.54-11.391C713.62,419.09,721.53,395.06,714.96,377.29z M534.31,427.02l-1.069,0.351
	l-0.721,0.24l-1.38,1.359c-1.1-0.739-2.279-1.52-3.51-2.319C529.8,426.78,532.03,426.91,534.31,427.02z M629.62,455.2L629.62,455.2z
	"/>
<path fill="#E7C7CA" d="M598.07,321.58c0,0,15.3,40,24,36c8.699-4,6.34-21,8-25.66s3.5-40,3.5-40s0.84-25,2.5-30.06
	c1.54-4.65,2.79-28.1,3-31.79c0-0.32,0-0.49,0-0.49l-1.65-29l-9.34-2.33l-21.66,8l-3,17.13l-1.17,6.69l-0.5,2.85L598.07,321.58z"/>
<path opacity="0.1" enable-background="new    " d="M603.11,314.88c0,0,14.6,11.95,19,13c4.399,1.05,7.1,10.37,7.1,10.37"/>
<path fill="#E7C7CA" d="M478.42,323.33c0,0-15.3,40-24,36s-6.34-21-8-25.66s-3.5-40-3.5-40s-0.84-25-2.5-30.06
	c-1.54-4.65-2.79-28.1-3-31.79c0-0.32,0-0.49,0-0.49l1.66-29l9.34-2.33l21.66,8l3,17.13l1.17,6.69l0.5,2.85L478.42,323.33z"/>
<rect x="543.9" y="109.27" fill="#3E373A" width="34.149" height="53.23"/>
<rect x="543.9" y="109.27" opacity="0.1" enable-background="new    " width="34.149" height="53.23"/>
<path fill="#4B4B5B" d="M472.42,363.17c0,0-11.67,12.83-7.34,15.16s32.34,46,32.34,46s92,11.33,109.35-5.67
	c17.351-17,17-47.37,17-47.37s-13.939,3-15.46,1.37c-1.52-1.63-9.87-9.49-9.87-9.49S480.42,356.01,472.42,363.17z"/>
<path opacity="0.02" enable-background="new    " d="M472.42,363.17c0,0-11.67,12.83-7.34,15.16s32.34,46,32.34,46
	s92,11.33,109.35-5.67c17.351-17,17-47.37,17-47.37s-13.939,3-15.46,1.37c-1.52-1.63-9.87-9.49-9.87-9.49
	S480.42,356.01,472.42,363.17z"/>
<path fill="#E7C7CA" d="M638.04,201l-30,24l-9.07,0.66l-3.33,0.24l-55.93,4.1l-58-4.24l-8.63-0.63l-11-0.8l-23-22
	c0,0,16.28-17.44,30.54-29.21c5.62-4.65,10.93-8.41,14.8-9.89l0.66-0.23c2.434-0.949,4.607-2.464,6.34-4.42
	c11.26-11.61,21.67-40.26,21.67-40.26s49.67-25.66,43.67,8c-6,33.66,22.33,25.34,22.33,25.34l9.34,4.26l3.69,1.69l9.41,4.31
	l21.229,9.74C639.42,179.33,638.04,201,638.04,201z"/>
<circle opacity="0.1" enable-background="new    " cx="537.38" cy="101.06" r="44.67"/>
<path opacity="0.1" enable-background="new    " d="M638.11,232.82H437.42c0-0.32,0-0.49,0-0.49l1.66-29
	c0,0,16.28-17.44,30.54-29.21l126-5l5.859-6.18l21.23,9.74c16.67,7.66,15.33,29.33,15.33,29.33S640.32,227.12,638.11,232.82z"/>
<path fill="#FFD037" d="M638.11,231.82H437.42c0-0.32,0-0.49,0-0.49l1.66-29c0,0,16.28-17.44,30.54-29.21l126-5l5.859-6.18
	l21.23,9.74c16.67,7.66,15.33,29.33,15.33,29.33S640.32,226.12,638.11,231.82z"/>
<path opacity="0.1" enable-background="new    " d="M505.21,150.5c0,0,31.66,40.34,73.83-0.83s4.67,91.83,4.67,91.83l-91,10.8
	L505.21,150.5z"/>
<path fill="#FFD037" d="M505.21,152.5c0,0,31.66,40.34,73.83-0.83s4.67,91.83,4.67,91.83l-91,10.8L505.21,152.5z"/>
<path opacity="0.1" enable-background="new    " d="M592.07,159.58l3.35,51.09l3.59,17l2.74,13c0,0,7,100,5,105s1,9,1.42,11.66
	s-0.42,9.34-0.09,12.34s0,4.33-7.66,3.26c-7.66-1.069-18.34-2.93-18.34-2.93s-27,2-36.33-1.33s-27-3.34-27-3.34
	S492.08,366,483.42,365s-13.34,10.67-19,7.33s6.66-35.66,10.66-45s-5.33-33-5.33-33l12-66.57l2.67-15.09v-47.44l0.66-0.23
	c2.434-0.949,4.607-2.464,6.34-4.42l3,47.74l94,3.34v-53.73"/>
<path fill="#FFD037" d="M592.07,157.58l3.35,51.09l3.59,17l2.74,13c0,0,7,100,5,105s1,9,1.42,11.66s-0.42,9.34-0.09,12.34
	s0,4.33-7.66,3.26c-7.66-1.069-18.34-2.93-18.34-2.93s-27,2-36.33-1.33s-27-3.34-27-3.34S492.08,364,483.42,363
	s-13.34,10.67-19,7.33s6.66-35.66,10.66-45s-5.33-33-5.33-33l12-66.57l2.67-15.09v-47.44l0.66-0.23
	c2.434-0.949,4.607-2.464,6.34-4.42l3,47.74l94,3.34v-53.73"/>
<path opacity="0.1" enable-background="new    " d="M602.88,50.96c-0.57-2.09-1.36-4.26-3-5.66c-1.565-1.124-3.375-1.864-5.28-2.16
	c-4.561-1.2-9.198-2.088-13.88-2.66c-0.669-2.22-1.681-4.323-3-6.23c-9.8-13.84-24.3-26.89-41.359-29.84
	c-8.931-1.55-19.28-0.16-25,6.88c-3.141,3.87-4.49,9-7.66,12.8c-6.11,7.38-17.141,8.29-24.84,14c-4.11,3-7.091,7.35-10,11.57
	c-3.15,4.57-6.391,9.33-7.391,14.79c-2,10.91,5.21,21.31,6.54,32.32c3,24.63-23.399,46.48-18.41,70.78
	c2.91,14.17,16,24.15,29.54,29.21c4.771,1.79,10.221,3.57,12.45,8.15c1,2,1.17,4.31,2.11,6.33c3.16,6.74,13.55,7,19.13,2.09
	s7.34-12.85,8-20.26c2.68-32.36-10.28-64.33-8.771-96.77c0.45-9.81,3.21-20.94,12-25.38c11.83-6,26.061,4,39.08,2.09
	c6.161,14.992,7.47,31.537,3.74,47.31c-2.07,8.63-5.65,17-5.91,25.9c-0.39,13.55,6.92,25.93,13.24,37.91
	c1.356,2.24,2.263,4.723,2.67,7.31c0.1,2.625-0.389,5.239-1.43,7.65c-3.57,9.61-9.73,18.53-10.431,28.76
	c-0.205,1.194,0.064,2.421,0.75,3.42c0.705,0.667,1.614,1.075,2.58,1.16c10.801,1.85,20.141-7.72,25.41-17.33
	c5.876-10.614,9.3-22.41,10.021-34.52c1.09-20.36-6.21-40.39-5.761-60.77C598.54,96.64,609.01,73.31,602.88,50.96z"/>
<path fill="#3E373A" d="M603.88,49.96c-0.57-2.09-1.36-4.26-3-5.66c-1.565-1.124-3.375-1.864-5.28-2.16
	c-4.561-1.2-9.198-2.088-13.88-2.66c-0.669-2.22-1.681-4.323-3-6.23c-9.8-13.84-24.3-26.89-41.359-29.84
	c-8.931-1.55-19.28-0.16-25,6.88c-3.141,3.87-4.49,9-7.66,12.8c-6.11,7.38-17.141,8.29-24.84,14c-4.11,3-7.091,7.35-10,11.57
	c-3.15,4.57-6.391,9.33-7.391,14.79c-2,10.91,5.21,21.31,6.54,32.32c3,24.63-23.399,46.48-18.41,70.78
	c2.91,14.17,16,24.15,29.54,29.21c4.771,1.79,10.221,3.57,12.45,8.15c1,2,1.17,4.31,2.11,6.33c3.16,6.74,13.55,7,19.13,2.09
	s7.34-12.85,8-20.26c2.68-32.36-10.28-64.33-8.771-96.77c0.45-9.81,3.21-20.94,12-25.38c11.83-6,26.061,4,39.08,2.09
	c6.161,14.992,7.47,31.537,3.74,47.31c-2.07,8.63-5.65,17-5.91,25.9c-0.39,13.55,6.92,25.93,13.24,37.91
	c1.356,2.24,2.263,4.723,2.67,7.31c0.1,2.625-0.389,5.239-1.43,7.65c-3.57,9.61-9.73,18.53-10.431,28.76
	c-0.205,1.194,0.064,2.421,0.75,3.42c0.705,0.667,1.614,1.075,2.58,1.16c10.801,1.85,20.141-7.72,25.41-17.33
	c5.876-10.614,9.3-22.41,10.021-34.52c1.09-20.36-6.21-40.39-5.761-60.77C599.54,95.64,610.01,72.31,603.88,49.96z"/>
<polygon fill="#C3C7D9" points="581.79,492.73 621.46,494 615.77,464.58 585.38,467.47 "/>
<path fill="#4B4B5B" d="M704.71,423c-2.67,3.33-13,9.33-14,11.33s-13.33,8-19.67,9s-26.33,5.34-30,7.67
	c-2.63,1.68-23.74,7-37.61,9.95c-3.757,0.889-7.559,1.573-11.39,2.05c-6,0.33-71.66-22-71.66-22l12.66-13l0.7-0.24
	c3.58-1.21,20.12-6.8,29.3-9.46c10.34-3,22.34-15.33,22.34-15.33s17.66-6,20-6.67s-6-23.33-6-23.33s38.33-5.319,53.33-9.83
	c15-4.51,49.67-2.84,56,14.83S707.42,419.67,704.71,423z"/>
<path fill="#E7C7CA" d="M530.04,479.33c0,0-7.66,8-15.33,7.34s-34.49,2-34.49,2c-4.86,1.938-9.411,4.576-13.51,7.83
	c-6.271,4.94-9.6,1-10.22,0.16l-0.11-0.16c-3.34,10.51-11,2.5-11,2.5s3.33-32,2.311-36c-1.021-4,6.59-10.87,6.59-10.87l9-2.29
	l22.8-5.84l32.67,11.33L530.04,479.33z"/>
<path opacity="0.1" enable-background="new    " d="M463.24,449.84l-6.75,46.82l-0.11-0.16c-3.34,10.51-11,2.5-11,2.5
	s3.33-32,2.311-36c-1.021-4,6.59-10.87,6.59-10.87L463.24,449.84z"/>
<path opacity="0.1" enable-background="new    " d="M510.42,316.66c0,0,17.66,6,33,0"/>
<path opacity="0.1" enable-background="new    " d="M570.71,328c0,0,7.33,3.66,13,0"/>
<path opacity="0.1" enable-background="new    " d="M570.71,336.68c0,0,12.33,1.65,14.67-1.68"/>
<path opacity="0.1" enable-background="new    " d="M566.71,355.33c0,0,23.16-3,28.91-7"/>
<path opacity="0.1" enable-background="new    " d="M496.04,348.33c0,0,13,7.33,22.67,7"/>
<path opacity="0.1" enable-background="new    " d="M603.42,460.95c-3.757,0.889-7.559,1.573-11.39,2.05c-6,0.33-71.66-22-71.66-22
	l12.66-13l0.699-0.24c2,1.41,3.641,2.62,4.811,3.54c5.51,4.34,10.83-1.33,12.83-1.33s19.33,14.33,19.33,14.33s16,3.67,18.67,7
	s12,2.67,13.66,5C603.53,457.02,603.59,458.79,603.42,460.95z"/>
<path fill="#4B4B5B" d="M480.22,374.33c0,0-16.18,0.93-25.51-3s-40.33-13-49.33-6.63s-30.67,12-20.67,37.34s14.67,26,14.67,26
	c3.094,2.32,5.795,5.123,8,8.3c3,4.67,31,15.33,38,15.33s19.33,0,36.66,12s33,13.34,33,13.34s22,9,28.85,11
	c6.851,2,38.15,10.66,45.49,8s12-19.34,12-19.34s3.33-15,1.66-17.33s-11-1.67-13.66-5s-18.67-7-18.67-7S553.42,433,551.42,433
	s-7.32,5.66-12.83,1.33c-10.976-8.13-22.508-15.48-34.51-22C491.42,405.66,480.22,374.33,480.22,374.33z"/>
<path opacity="0.1" enable-background="new    " d="M447.69,384c5.839-1.193,11.901,0.408,16.39,4.33
	c8,6.67,34.92,20.06,34.92,20.06"/>
<path opacity="0.1" enable-background="new    " d="M647.71,383.58c0,0-35.67,5.4-42.33,12.729"/>
<path fill="#E7C7CA" d="M688.71,494h-1.57c-5.64-0.2-24.75-0.8-28.43,0c-4.33,1-61.67,0-61.67,0l11.21-2.33
	c0,0-4.16-14.58-1.52-15.79c0,0-15-9.88-3.69-16.55s23.5-3.86,23.5-3.86l28.39-9.62l5.45-1.85c0,0,32,1.67,40.66,23.67
	S688.71,494,688.71,494z"/>
<path opacity="0.1" enable-background="new    " d="M688.71,494h-1.57c9.311-7.68,30.37-31.06-32.21-48.1l5.45-1.851
	c0,0,32,1.67,40.66,23.67S688.71,494,688.71,494z"/>
<circle fill="#4B4B5B" cx="629.88" cy="466.33" r="1.75"/>
<circle fill="#4B4B5B" cx="619.71" cy="469.22" r="1.75"/>
<g opacity="0.1">
	<path d="M570.16,99.41c0.388-11-1.569-21.955-5.74-32.14c-13,1.94-27.24-8.09-39.08-2.09c-8.76,4.44-11.51,15.57-12,25.38
		c-0.12,2.59-0.14,5.18-0.09,7.77c0-0.92,0-1.85,0.09-2.77c0.46-9.81,3.21-20.94,12-25.38c11.84-6,26.061,4,39.08,2.09
		C567.952,80.897,569.897,90.091,570.16,99.41z"/>
	<path d="M469.42,97.58c0.171-2.179,0.128-4.37-0.13-6.54c-1.06-8.8-5.87-17.21-6.74-25.79c-1.12,10.35,5.47,20.29,6.74,30.79
		C469.42,96.58,469.42,97.06,469.42,97.58z"/>
	<path d="M522.11,187.32c-0.62,7.42-2.37,15.35-8,20.27c-5.63,4.92-16,4.65-19.13-2.09c-1-2-1.15-4.33-2.12-6.33
		c-2.221-4.58-7.681-6.36-12.45-8.15c-13.55-5.07-26.62-15-29.53-29.21c-0.26-1.287-0.437-2.59-0.53-3.9
		c-0.246,2.977-0.067,5.973,0.53,8.9c2.91,14.17,16,24.14,29.53,29.21c4.77,1.79,10.229,3.57,12.45,8.15c1,2,1.17,4.31,2.12,6.33
		c3.149,6.74,13.539,7,19.13,2.09c5.59-4.91,7.33-12.85,8-20.27c0.304-3.905,0.407-7.824,0.31-11.74
		C522.42,182.85,522.29,185.09,522.11,187.32z"/>
	<path d="M599.35,114.07c0,1.45,0,2.89,0,4.33c0.561-18.6,7.381-37.3,6.71-55.51C605.54,79.73,599.73,96.95,599.35,114.07z"/>
	<path d="M577.89,189.31c0.246-1.187,0.323-2.402,0.23-3.61c-0.403-2.588-1.311-5.072-2.67-7.31c-5.78-11-12.37-22.26-13.15-34.47
		c0,0.52-0.07,1-0.08,1.56c-0.399,13.54,6.91,25.93,13.23,37.91C576.524,185.246,577.345,187.236,577.89,189.31z"/>
	<path d="M605.1,174.84c-0.746,12.115-4.193,23.91-10.09,34.52c-5.28,9.61-14.609,19.18-25.42,17.33
		c-0.969-0.083-1.879-0.497-2.58-1.17c-0.203-0.229-0.362-0.494-0.47-0.78c-0.12,0.78-0.22,1.57-0.28,2.37
		c-0.207,1.191,0.063,2.416,0.75,3.41c0.701,0.673,1.611,1.086,2.58,1.17c10.811,1.85,20.141-7.72,25.42-17.33
		c5.896-10.61,9.344-22.405,10.09-34.52c0.12-2.34,0.131-4.67,0.061-7C605.14,173.51,605.14,174.17,605.1,174.84z"/>
</g>
<path opacity="0.1" fill="none" stroke="#000000" stroke-miterlimit="10" enable-background="new    " d="M606.73,475.88
	c0,0,25.31,10.62,42-12.88"/>
<path opacity="0.1" fill="none" stroke="#000000" stroke-miterlimit="10" enable-background="new    " d="M611.71,494.44
	c0,0,20.67-13.44,47-0.44"/>
<path opacity="0.1" fill="none" stroke="#000000" stroke-miterlimit="10" enable-background="new    " d="M473.35,491.39
	c0,0,8.681-19.58,31.86-4.649"/>
<path opacity="0.1" enable-background="new    " d="M445.21,201.83l17.7-16c0,0,68.63-4.5,71.47,18.83c0,0,24.33-27.66,75.5-21.5
	l21.65,17.24l-59.841,26.26l-58.149,20.17l-42.83-19.17L445.21,201.83z"/>
<path fill="#D5D6DB" d="M445.21,202.83l17.7-16c0,0,68.63-4.5,71.47,18.83c0,0,24.33-27.66,75.5-21.5l21.65,17.24l-59.841,26.26
	l-58.149,20.17l-42.83-19.17L445.21,202.83z"/>
<polygon opacity="0.1" enable-background="new    " points="437.38,204.83 445.21,298.5 528.21,302.67 524.61,209.4 524.54,207.83 
	"/>
<polygon fill="#009CF9" points="437.38,202.83 445.21,296.5 528.21,300.67 524.61,207.4 524.54,205.83 "/>
<polygon opacity="0.1" enable-background="new    " points="635.33,202.83 549.71,215.67 549.71,309.76 633.38,297.67 "/>
<polygon fill="#009CF9" points="635.33,200.83 549.71,213.67 549.71,307.76 633.38,295.67 "/>
<polygon opacity="0.3" fill="#FFFFFF" enable-background="new    " points="615.14,223.79 568.89,228.93 569.9,244.69 
	615.11,239.75 "/>
<path fill="#E7C7CA" d="M449.71,346.66l4.71,12.67c0,0,7,6,14.66,3s14.34-4.49,17.67-7.41s8-17.59,8-17.59s4.67-16,9.33-20
	s17-59.11,0-53.72c-17,5.39-30,55.39-30,55.39s-3,3.66-7.33,4s-13-0.67-14.67,3S444.71,339.33,449.71,346.66z"/>
<path opacity="0.1" enable-background="new    " d="M549.71,215.66c-8.889,2.003-18.201-0.319-25.11-6.26l3.61,93.26
	c0,0,8.5,9.2,21.5,7.1V215.66z"/>
<path fill="#009CF9" d="M549.71,213.66c-8.889,2.003-18.201-0.319-25.11-6.26l3.61,93.26c0,0,8.5,9.2,21.5,7.1V213.66z"/>
<path opacity="0.1" enable-background="new    " d="M549.71,213.66c-8.889,2.003-18.201-0.319-25.11-6.26l3.61,93.26
	c0,0,8.5,9.2,21.5,7.1V213.66z"/>
<path opacity="0.1" enable-background="new    " d="M551.71,203.15c0,0,34.83-10.65,43.91-9.15"/>
<path opacity="0.1" enable-background="new    " d="M512.75,198.5c0,0-33.76-8-39.4-5.73"/>
<path opacity="0.1" enable-background="new    " d="M573.67,204.48c0,0,23.29-8.54,31.71-4.48"/>
<path opacity="0.1" enable-background="new    " d="M561.94,418.71c3.608-2.71,7.45-5.097,11.479-7.13c6-2.89,17-10.39,17-10.39"/>
<path opacity="0.1" enable-background="new    " d="M473.35,316.66c0,0-14.609,11.95-19,13c-4.39,1.05-7.1,10.37-7.1,10.37"/>
<path fill="#E7C7CA" d="M626.74,344.88l-4.66,12.7c0,0-7,6-14.67,3s-14.33-4.49-17.67-7.41s-8-17.59-8-17.59s-4.66-16-9.33-20
	s-17-59.11,0-53.72c17,5.39,30,55.39,30,55.39s3,3.66,7.33,4s13-0.67,14.67,3S631.74,337.58,626.74,344.88z"/>
<path opacity="0.1" enable-background="new    " d="M618.57,321.52c0,0,9.55,6.141,9.51,13.48"/>
<circle fill="#E7C7CA" cx="537.54" cy="98.87" r="44.67"/>
<path fill="#3E373A" d="M509.49,86.88c5.42-0.85,10.17-4,15.35-5.81c11.59-4.07,24.41-1.28,36.141,2.39c4.5,1.41,9.069,3,13.789,3
	c4.721,0,9.73-1.93,12.141-6c2.22-3.74,1.79-8.6-0.08-12.53c-1.87-3.93-5-7.09-8.16-10.07c-10.4-9.82-23.3-19-37.57-18
	c-5.739,0.41-11.229,2.46-16.51,4.73c-6.648,2.865-13.12,6.125-19.38,9.76c-4.81,2.79-13.72,6.52-16.49,11.62
	C482.42,77.46,499.69,88.42,509.49,86.88z"/>
<path opacity="0.1" enable-background="new    " d="M586.91,76.26c-2.41,4.07-7.42,6-12.141,6c-4.72,0-9.289-1.53-13.8-2.94
	c-11.729-3.67-24.54-6.47-36.14-2.39c-5.17,1.81-9.93,5-15.35,5.8c-7.9,1.24-20.62-5.64-22-14.39
	c-1.551,10.11,13.199,18.77,22,17.39c5.42-0.85,10.18-4,15.35-5.8c11.6-4.08,24.41-1.28,36.14,2.39c4.511,1.41,9.07,3,13.8,2.94
	c4.73-0.06,9.73-1.92,12.141-6c1.249-2.219,1.74-4.786,1.399-7.31C588.154,73.47,587.677,74.939,586.91,76.26z"/>
<path fill="#009CF9" d="M949.42,618.21c0,0,5.93,7.75-2.74,19.46s-15.81,21.59-12.93,28.891c0,0,13.08-21.74,23.72-22.051
	C968.11,644.2,961.11,631.28,949.42,618.21z"/>
<path opacity="0.1" enable-background="new    " d="M949.42,618.21c0.517,0.749,0.924,1.566,1.21,2.43
	c10.38,12.2,15.92,23.591,5.93,23.87c-9.3,0.271-20.449,16.9-23.119,21.09c0.085,0.339,0.188,0.673,0.31,1
	c0,0,13.08-21.739,23.72-22.05C968.11,644.24,961.11,631.28,949.42,618.21z"/>
<path fill="#FFD037" d="M960.42,628.09c0,2.73-0.31,4.94-0.68,4.94s-0.69-2.21-0.69-4.94c0-2.729,0.38-1.439,0.76-1.439
	C960.19,626.65,960.42,625.36,960.42,628.09z"/>
<path fill="#FFD037" d="M964.21,631.35c-2.39,1.301-4.479,2.091-4.66,1.761c-0.18-0.33,1.61-1.66,4-3c2.391-1.341,1.45-0.36,1.63,0
	C965.36,630.47,966.61,630.04,964.21,631.35z"/>
<path fill="#009CF9" d="M918.08,618.21c0,0-5.93,7.75,2.74,19.46s15.81,21.59,12.92,28.891c0,0-13.07-21.74-23.721-22.051
	C899.37,644.2,906.42,631.28,918.08,618.21z"/>
<path opacity="0.1" enable-background="new    " d="M918.08,618.21c-0.517,0.749-0.924,1.566-1.21,2.43
	c-10.38,12.2-15.92,23.591-5.931,23.87c9.29,0.271,20.45,16.9,23.12,21.09c-0.083,0.341-0.19,0.675-0.319,1
	c0,0-13.07-21.739-23.721-22.05C899.37,644.24,906.42,631.28,918.08,618.21z"/>
<path fill="#FFD037" d="M907.06,628.09c0,2.73,0.301,4.94,0.681,4.94s0.689-2.21,0.689-4.94c0-2.729-0.39-1.439-0.76-1.439
	S907.06,625.36,907.06,628.09z"/>
<path fill="#FFD037" d="M903.28,631.35c2.39,1.301,4.479,2.091,4.659,1.761c0.181-0.33-1.609-1.66-4-3
	c-2.39-1.341-1.449-0.36-1.63,0C902.13,630.47,900.88,630.04,903.28,631.35z"/>
<ellipse opacity="0.1" fill="#009CF9" enable-background="new    " cx="933.75" cy="716.37" rx="62" ry="9.51"/>
<path fill="#65617D" d="M965.66,656.11l-0.3,2.42l-0.421,3.42l-0.17,1.43l-0.42,3.42l-0.18,1.431l-0.41,3.409l-4.75,38.9
	c-0.42,3.47-6.09,6.18-12.94,6.18H921.42c-6.85,0-12.51-2.71-12.939-6.18l-4.75-38.9l-0.421-3.409l-0.17-1.431l-0.42-3.42
	l-0.18-1.43l-0.41-3.42l-0.3-2.42c-0.23-2,2.83-3.62,6.71-3.62h50.42C962.83,652.49,965.9,654.14,965.66,656.11z"/>
<polygon fill="#9D9CB5" points="965.36,658.53 964.95,661.95 902.55,661.95 902.13,658.53 "/>
<polygon fill="#9D9CB5" points="964.77,663.38 964.36,666.8 903.14,666.8 902.72,663.38 "/>
<polygon fill="#9D9CB5" points="964.18,668.23 963.76,671.65 903.73,671.65 903.32,668.23 "/>
</svg>
