<svg xmlns="http://www.w3.org/2000/svg" xmlns:xlink="http://www.w3.org/1999/xlink" width="328" height="99" viewBox="0 0 328 99">
  <defs>
    <polygon id="logo-a" points=".061 .089 36.986 .089 36.986 77.439 .061 77.439"/>
  </defs>
  <g fill="none" fill-rule="evenodd">
    <path fill="#006628" d="M99,97 L99,6 L99,97 Z"/>
    <polygon fill="#D25D9A" points="96 97 101 97 101 6 96 6"/>
    <path fill="#A5CD39" d="M88,96 L88,13 L88,96 Z"/>
    <polygon fill="#C0D73F" points="85 96 93 96 93 13 85 13"/>
    <path fill="#006628" d="M77,0 L77,97 L77,0 Z"/>
    <polygon fill="#3A83B7" points="75 97 81 97 81 0 75 0"/>
    <path fill="#F69220" d="M106,30 L112,97"/>
    <polygon fill="#F48221" points="106.963 97 101 30.6 108.037 30 114 96.4"/>
    <g transform="translate(0 1)">
      <path fill="#0C6191" d="M141.652854,62.4686096 L137.29664,62.4686096 L137.29664,85.5903471 L141.652854,85.5903471 C148.498332,85.5903471 149.846684,82.5838505 149.846684,74.288849 C149.846684,66.7196318 148.705771,62.4686096 141.652854,62.4686096 L141.652854,62.4686096 Z M137.29664,52.7220395 L142.171451,52.7220395 C147.564858,52.7220395 149.017253,49.4041685 149.017253,41.9389587 C149.017253,34.4734249 147.564858,31.4666043 142.171451,31.4666043 L137.29664,31.4666043 L137.29664,52.7220395 Z M153.166028,57.0767452 L153.166028,57.2844361 C160.42606,60.0838898 161.981851,65.3717467 161.981851,74.4962159 C161.981851,88.7011752 158.144558,95.959018 143.312364,95.959018 L124.849991,95.959018 L124.849991,21.0979335 L144.142119,21.0979335 C156.899926,21.0979335 161.15242,28.0447259 161.15242,41.6279083 C161.15242,49.6115354 159.700349,54.381299 153.166028,57.0767452 L153.166028,57.0767452 Z"/>
      <path fill="#3A83B7" d="M191.333721,37.9986629 C191.333721,34.0586911 189.985369,30.7408201 185.006515,30.7408201 C180.027985,30.7408201 178.679633,34.0586911 178.679633,37.9986629 L178.679633,79.0582886 C178.679633,82.9982604 180.027985,86.3164554 185.006515,86.3164554 C189.985369,86.3164554 191.333721,82.9982604 191.333721,79.0582886 L191.333721,37.9986629 Z M203.780045,78.7472382 C203.780045,89.9453768 196.519689,97.2032196 185.006515,97.2032196 C173.49334,97.2032196 166.232984,89.9453768 166.232984,78.7472382 L166.232984,38.3097133 C166.232984,27.1115746 173.49334,19.8537318 185.006515,19.8537318 C196.519689,19.8537318 203.780045,27.1115746 203.780045,38.3097133 L203.780045,78.7472382 Z"/>
      <path fill="#BFD82C" d="M234.065746,37.9986629 C234.065746,34.0586911 232.717394,30.7408201 227.73854,30.7408201 C222.76001,30.7408201 221.411658,34.0586911 221.411658,37.9986629 L221.411658,79.0582886 C221.411658,82.9982604 222.76001,86.3164554 227.73854,86.3164554 C232.717394,86.3164554 234.065746,82.9982604 234.065746,79.0582886 L234.065746,37.9986629 Z M246.51207,78.7472382 C246.51207,89.9453768 239.251714,97.2032196 227.73854,97.2032196 C216.225365,97.2032196 208.965009,89.9453768 208.965009,78.7472382 L208.965009,38.3097133 C208.965009,27.1115746 216.225365,19.8537318 227.73854,19.8537318 C239.251714,19.8537318 246.51207,27.1115746 246.51207,38.3097133 L246.51207,78.7472382 Z"/>
      <polygon fill="#D35A9A" points="264.351 52.722 277.524 21.098 289.763 21.098 276.798 50.96 290.8 95.959 278.146 95.959 268.811 62.78 264.351 72.422 264.351 95.959 252.008 95.959 252.008 21.098 264.351 21.098"/>
      <g transform="translate(290.738 19.765)">
        <mask id="logo-b" fill="#fff">
          <use xlink:href="#logo-a"/>
        </mask>
        <path fill="#F58100" d="M23.3984099,34.2016447 C31.0739676,41.7708619 36.9859719,48.199237 36.9859719,58.4642244 C36.9859719,70.0770969 29.4144577,77.4386232 18.5235994,77.4386232 C7.11414421,77.4386232 0.0609027194,69.4549961 0.0609027194,58.3605409 L0.0609027194,50.5839567 L11.5744014,50.5839567 L11.5744014,57.4273897 C11.5744014,63.2336639 13.5450695,66.5515349 18.41988,66.5515349 C21.7388999,66.5515349 25.0579199,64.9962829 25.0579199,59.3973756 C25.0579199,52.4505832 19.8719512,47.7845031 13.5450695,41.7708619 C7.32125884,35.7568967 0.579823708,28.9137877 0.579823708,18.2340664 C0.579823708,8.6948633 5.86951174,0.0891353821 18.5235994,0.0891353821 C29.4144577,0.0891353821 36.0524975,6.41382698 36.0524975,20.4114193 L36.0524975,25.1811829 L24.5396471,25.1811829 L24.5396471,21.0335201 C24.5396471,13.4646269 22.4649356,10.7685327 18.5235994,10.7685327 C14.3745003,10.7685327 12.5075516,13.8793607 12.5075516,17.7156491 C12.5075516,23.5222474 16.8640894,27.7732696 23.3984099,34.2016447" mask="url(#logo-b)"/>
      </g>
      <path fill="#FFF" d="M61.7747076,34.6403553 C61.7747076,50.4481962 49.2204499,63.263797 33.7364439,63.263797 C18.2511415,63.263797 5.6981803,50.4481962 5.6981803,34.6403553 C5.6981803,18.8318664 18.2511415,6.01658969 33.7364439,6.01658969 C49.2204499,6.01658969 61.7747076,18.8318664 61.7747076,34.6403553"/>
      <path fill="#231F20" d="M0 34.6541258C0 15.6845871 15.0639424.305736629 33.6459164.305736629 52.2275662.305736629 67.2908604 15.6845871 67.2908604 34.6541258 67.2908604 53.6246365 52.2275662 69.003487 33.6459164 69.003487 15.0639424 69.003487 0 53.6246365 0 34.6541258L0 34.6541258zM52.9354509 34.9042622L56.5717873 34.9042622 48.4051832 15.8754295 43.0532635 15.8754295 51.2519558 34.9042622 47.5164378 34.9042622 47.5164378 39.951379C47.5264856 43.0119854 46.2727777 44.3187211 42.2017923 44.2646113L42.2017923 54.0076173 47.5034729 54.0076173 47.5034729 44.2646113 49.2540614 44.2646113C50.8069349 44.3073807 52.9069281 43.0207337 52.9354509 40.5206661L52.9354509 34.9042622zM27.2344385 15.8754295C19.0370427 15.8754295 12.2956076 21.718965 12.2956076 30.3846349 12.2956076 37.6726108 16.5915343 42.8768729 23.0062534 43.8702901L23.0062534 54.0076173 36.3568815 54.0076173 36.3568815 44.2646113 38.2098929 44.2646113C40.3721177 44.0491441 41.8407192 42.5868832 41.8627596 40.5388107L41.8627596 34.9042622 45.5000684 34.9042622 37.2252071 15.8754295 27.2344385 15.8754295zM34.6049965 32.3792457C36.505654 32.3792457 38.046859 30.8061731 38.046859 28.8663202 38.046859 26.9254952 36.505654 25.3524226 34.6049965 25.3524226 32.7040148 25.3524226 31.1628098 26.9254952 31.1628098 28.8663202 31.1628098 30.8061731 32.7040148 32.3792457 34.6049965 32.3792457L34.6049965 32.3792457zM14.7224464 80.6749083L12.3809816 80.6749083 12.3809816 77.7157173 20.124281 77.7157173C24.3297775 77.7157173 26.7350946 79.9280633 26.7350946 83.4066437 26.7350946 86.9506742 24.2156862 89.1082624 20.2367517 89.1082624 19.902905 89.1150666 18.1140699 89.1102065 18.1140699 89.1102065L18.1140699 93.6110411 20.8571232 93.6110411 20.8571232 96.5874046 12.3511622 96.5874046 12.3511622 93.6110411 14.7224464 93.6110411 14.7224464 80.6749083 14.7224464 80.6749083zM18.1140699 86.138379L20.3732075 86.138379C22.2968778 86.138379 23.346064 84.9142661 23.346064 83.4066437 23.346064 81.8426433 22.2424251 80.6713441 20.3732075 80.6713441L18.1140699 80.6713441 18.1140699 86.138379zM30.0435805 80.6749083L27.9153886 80.6749083 27.9153886 77.7157173 35.3462334 77.7157173C39.9465118 77.7157173 41.4138168 80.5265113 41.4138168 82.5745838 41.4138168 84.312902 40.5078929 85.7087407 39.1828779 86.3697228 41.0423718 87.1622533 42.0853997 89.1124745 42.0853997 90.8219557 42.0853997 94.9317092 38.9229312 96.5874046 35.8962702 96.5874046L27.6706757 96.5874046 27.6706757 93.6110411 30.0435805 93.6110411 30.0435805 80.6749083 30.0435805 80.6749083zM33.430018 93.6110411L35.5896498 93.6110411C37.3700577 93.6110411 38.5748231 92.6091995 38.5748231 90.920779 38.5748231 89.4925393 37.636811 88.2486616 35.5896498 88.2486616L33.430018 88.2486616 33.430018 93.6110411zM33.430018 85.269382L35.4564353 85.269382C36.9817583 85.269382 38.0092283 84.3488672 38.0092283 82.9656649 38.0092283 81.6012553 36.9934267 80.6732882 35.4564353 80.6732882L33.430018 80.6732882 33.430018 85.269382zM53.1308647 80.6714089C52.5241064 80.4293728 51.7293567 80.2148777 50.9349311 80.2148777 48.6706075 80.2148777 47.9458684 81.5549865 47.9458684 82.5995975 47.9458684 83.9659512 48.8103046 84.3683726 49.8841242 84.6625745L51.846041 85.2253813C54.2516822 85.9220046 56.914353 86.8324751 56.914353 90.716717 56.914353 94.2805122 54.8117668 96.8787552 50.1651389 96.8787552 48.3665801 96.8787552 46.4980108 96.664584 44.3020772 95.8341442L44.3020772 90.8783984 47.7128239 90.8783984 47.7128239 93.3428249C48.5772601 93.7442743 49.5104103 93.824629 50.4678698 93.824629 52.4774326 93.824629 53.3639092 92.7262322 53.3639092 91.3064167 53.3639092 90.3421605 52.8965237 89.6452132 50.7022107 89.0020517L48.903652 88.4664617C45.5402272 87.4756366 44.396397 85.9754664 44.396397 83.0817256 44.396397 80.1079541 46.2169961 77.4828183 50.8419078 77.4828183 52.8268373 77.4828183 54.8117668 77.8576988 56.2145713 78.4739674L56.2145713 82.9479091 53.1308647 82.9479091 53.1308647 80.6714089M60.1404792 95.4952289C60.1404792 96.2398058 59.5463617 96.8499182 58.8128713 96.8499182 58.0790567 96.8499182 57.4852633 96.2398058 57.4852633 95.4952289 57.4852633 94.7496799 58.0790567 94.1395675 58.8128713 94.1395675 59.5463617 94.1395675 60.1404792 94.7496799 60.1404792 95.4952289L60.1404792 95.4952289zM59.9255857 95.4952289C59.9255857 94.841051 59.4494489 94.3216616 58.8128713 94.3216616 58.1759695 94.3216616 57.6998327 94.841051 57.6998327 95.4952289 57.6998327 96.1487588 58.1759695 96.6665281 58.8128713 96.6665281 59.4494489 96.6665281 59.9255857 96.1487588 59.9255857 95.4952289L59.9255857 95.4952289zM58.5334772 96.3020159L58.3185836 96.3020159 58.3185836 94.691034 58.922749 94.691034C59.2773396 94.691034 59.4351875 94.8478552 59.4351875 95.1368729 59.4351875 95.4210304 59.2527062 95.5451266 59.0702249 95.5862759L59.510384 96.3020159 59.2669676 96.3020159 58.8371805 95.5862759 58.5334772 95.5862759 58.5334772 96.3020159zM58.7804589 95.4032098C58.9872494 95.4032098 59.2202939 95.4145502 59.2202939 95.1333088 59.2202939 94.9068252 59.0417021 94.8741001 58.8776959 94.8741001L58.5334772 94.8741001 58.5334772 95.4032098 58.7804589 95.4032098z"/>
    </g>
  </g>
</svg>
